<mxfile host="app.diagrams.net" modified="2023-11-12T12:39:58.084Z" agent="Mozilla/5.0 (Macintosh; Intel Mac OS X 10_15_7) AppleWebKit/605.1.15 (KHTML, like Gecko) Version/17.1 Safari/605.1.15" version="22.1.0" etag="IkvBsSmd0HWyo8v1cpVG" type="github">
  <diagram name="Page-1" id="HHUa0h_gX9fm2fWKfNlr">
    <mxGraphModel>
      <root>
        <mxCell id="0" />
        <mxCell id="1" parent="0" />
      </root>
    </mxGraphModel>
  </diagram>
</mxfile>
